<svg width="64" height="64" viewBox="0 0 64 64" fill="none" xmlns="http://www.w3.org/2000/svg">
<path d="M56.375 16.875L43.25 13.125L39.5 0H13.25C10.1434 0 7.625 2.51837 7.625 5.625V58.375C7.625 61.4816 10.1434 64 13.25 64H50.75C53.8566 64 56.375 61.4816 56.375 58.375V16.875Z" fill="#4086F4"/>
<path d="M56.375 16.875V58.375C56.375 61.4816 53.8566 64 50.75 64H32V0H39.5L43.25 13.125L56.375 16.875Z" fill="#4175DF"/>
<path d="M56.375 16.875H43.25C41.1875 16.875 39.5 15.1875 39.5 13.125V0C39.9875 0 40.475 0.1875 40.8124 0.562625L55.8124 15.5626C56.1875 15.9 56.375 16.3875 56.375 16.875Z" fill="#80AEF8"/>
<path d="M43.25 30.125H20.75C19.7136 30.125 18.875 29.2864 18.875 28.25C18.875 27.2136 19.7136 26.375 20.75 26.375H43.25C44.2864 26.375 45.125 27.2136 45.125 28.25C45.125 29.2864 44.2864 30.125 43.25 30.125Z" fill="#FFF5F5"/>
<path d="M43.25 37.625H20.75C19.7136 37.625 18.875 36.7864 18.875 35.75C18.875 34.7136 19.7136 33.875 20.75 33.875H43.25C44.2864 33.875 45.125 34.7136 45.125 35.75C45.125 36.7864 44.2864 37.625 43.25 37.625Z" fill="#FFF5F5"/>
<path d="M43.25 45.125H20.75C19.7136 45.125 18.875 44.2864 18.875 43.25C18.875 42.2136 19.7136 41.375 20.75 41.375H43.25C44.2864 41.375 45.125 42.2136 45.125 43.25C45.125 44.2864 44.2864 45.125 43.25 45.125Z" fill="#FFF5F5"/>
<path d="M35.75 52.625H20.75C19.7136 52.625 18.875 51.7864 18.875 50.75C18.875 49.7136 19.7136 48.875 20.75 48.875H35.75C36.7864 48.875 37.625 49.7136 37.625 50.75C37.625 51.7864 36.7864 52.625 35.75 52.625Z" fill="#FFF5F5"/>
<path d="M32 52.625H35.75C36.7864 52.625 37.625 51.7864 37.625 50.75C37.625 49.7136 36.7864 48.875 35.75 48.875H32V52.625Z" fill="#E3E7EA"/>
<path d="M32 45.125H43.25C44.2864 45.125 45.125 44.2864 45.125 43.25C45.125 42.2136 44.2864 41.375 43.25 41.375H32V45.125Z" fill="#E3E7EA"/>
<path d="M32 37.625H43.25C44.2864 37.625 45.125 36.7864 45.125 35.75C45.125 34.7136 44.2864 33.875 43.25 33.875H32V37.625Z" fill="#E3E7EA"/>
<path d="M32 30.125H43.25C44.2864 30.125 45.125 29.2864 45.125 28.25C45.125 27.2136 44.2864 26.375 43.25 26.375H32V30.125Z" fill="#E3E7EA"/>
</svg>
