<svg width="392" height="380" viewBox="0 0 392 380" fill="none" xmlns="http://www.w3.org/2000/svg">
<path d="M54.3336 100.872C52.984 106.903 51.3836 112.66 49.5085 118.452C48.5889 121.343 47.5857 124.209 46.5466 127.063C46.0211 128.497 45.4837 129.918 44.9104 131.339L44.0386 133.513C43.5608 134.719 42.8681 136.152 41.5066 137.562C40.1809 138.983 37.9953 140.141 36.0486 140.368C34.1018 140.643 32.5014 140.344 31.2713 139.974C28.7871 139.198 27.1628 138.123 25.658 137.072C22.7319 134.91 20.4746 132.629 18.3368 130.264C14.0969 125.535 10.6095 120.59 7.37292 115.287C6.36969 113.627 6.89519 111.478 8.54335 110.474C9.94071 109.626 11.6844 109.865 12.8071 110.952L12.9146 111.06C14.9569 113.054 17.035 115.156 19.1728 117.103C21.2748 119.085 23.4126 121.008 25.5624 122.788C27.7122 124.543 29.9097 126.239 31.964 127.338C32.9433 127.899 33.9585 128.294 34.3526 128.294C34.5437 128.318 34.4721 128.186 33.9824 128.222C33.5166 128.234 32.6806 128.628 32.382 128.962C32.0476 129.297 32.0476 129.369 32.0715 129.189L32.6686 127.147L33.863 122.955C34.6632 120.16 35.3917 117.342 36.168 114.523L40.5989 97.6473L40.6228 97.5399C41.6141 93.7778 45.4598 91.5324 49.2219 92.5237C52.9124 93.4911 55.1457 97.1935 54.3336 100.872Z" fill="#AF6E51"/>
<path d="M43.8833 84.0082C37.1951 90.0037 35.7619 107.202 35.7619 107.202L55.7907 119.551C55.7907 119.551 57.618 109.949 58.8959 98.3998C60.2932 85.8236 51.9808 76.7467 43.8833 84.0082Z" fill="#407BFF"/>
<path d="M89.4108 74.0834C75.6402 74.0117 61.8697 75.5882 48.2664 80.8791C42.1634 83.2558 38.5566 89.5737 39.3926 96.0709C41.0408 108.922 45.615 132.94 58.3107 165.986L106.263 152.861C104.734 145.408 90.9514 110.403 89.4108 74.0834Z" fill="#407BFF"/>
<path d="M13.7267 112.075L10.5617 104.491L2.14178 110.88C2.14178 110.88 3.63469 117.246 9.89293 115.968L13.7267 112.075Z" fill="#AF6E51"/>
<path d="M3.40773 101.445L0.469704 105.327C-0.0199678 105.972 -0.1394 106.736 0.171124 107.286L2.14175 110.88L10.5617 104.491L6.40547 100.741C5.65305 100.06 4.20793 100.394 3.40773 101.445Z" fill="#AF6E51"/>
<path opacity="0.2" d="M84.0482 91.425C84.2751 94.9124 90.1751 109.423 94.809 112.075C93.6983 107.202 92.6712 102.078 91.8113 96.7755L84.0482 91.425Z" fill="black"/>
<path d="M64.7241 52.932C65.0705 59.7874 66.8023 72.1128 72.5828 75.5166C69.8478 79.84 66.1454 84.9517 58.2987 86.9104C50.452 88.8691 50.4759 83.1961 51.8613 79.9236C58.86 76.5915 57.2955 71.1931 54.7038 66.3561L64.7241 52.932Z" fill="#AF6E51"/>
<path opacity="0.2" d="M60.6396 58.402L54.7038 66.3442C55.3248 67.4908 55.8742 68.6612 56.2564 69.8316C58.9914 68.8284 62.1205 64.923 61.6786 61.9252C61.4636 60.4323 61.0576 59.035 60.6396 58.402Z" fill="black"/>
<path d="M47.096 38.4449C52.5302 40.3558 51.503 44.7867 49.3413 46.841C52.7212 48.083 55.0979 52.5618 55.0979 52.5618L49.3533 57.1479C49.3533 57.1479 41.3633 56.8971 39.9659 52.3468C38.5685 47.7964 30.7935 42.4339 39.2254 37.167C47.6454 31.9 47.096 38.4449 47.096 38.4449Z" fill="#263238"/>
<path d="M64.0554 42.5653C65.4886 51.666 66.8023 56.921 63.2671 62.4985C57.9643 70.8826 45.9256 69.127 41.7932 60.6234C38.0669 52.9678 36.3471 39.3764 44.373 33.9303C52.2794 28.5559 62.6102 33.4646 64.0554 42.5653Z" fill="#AF6E51"/>
<path d="M57.6299 35.4471C56.7819 38.3732 48.3978 35.4471 42.462 38.3851C39.7509 39.7228 35.6424 45.4913 28.1899 41.5979C28.1899 41.5979 33.3135 39.4959 33.9226 35.3993C34.6392 30.5623 36.1082 24.4474 44.5282 25.9761C52.9362 27.4929 54.3336 23.91 59.7797 25.1401C66.5753 26.6808 69.1312 39.9377 57.6299 35.4471Z" fill="#263238"/>
<path d="M55.9339 34.8977C53.39 40.0691 57.2238 42.5175 60.2096 42.4578C58.6689 45.7063 60.1141 50.5792 60.1141 50.5792L67.4353 49.8267C67.4353 49.8267 72.9649 44.0582 70.7674 39.8183C68.5818 35.5904 70.3733 26.3225 60.6635 28.4603C50.9536 30.5982 55.9339 34.8977 55.9339 34.8977Z" fill="#263238"/>
<path d="M58.2151 30.7654C63.291 28.1618 65.2855 24.5907 65.5124 20.8764C68.1996 25.7134 66.8023 30.8251 58.2151 30.7654Z" fill="#263238"/>
<path d="M69.2387 50.7225C68.4504 53.0514 66.8142 54.7713 65.178 55.6073C62.7177 56.8613 61.1651 54.4727 61.5711 51.6063C61.9414 49.0146 63.6731 45.2525 66.2648 45.2047C68.8326 45.157 70.1463 48.0592 69.2387 50.7225Z" fill="#AF6E51"/>
<path d="M50.7745 360.47L62.4072 358.989L63.494 337.598L50.8939 338.84L50.7745 360.47Z" fill="#AF6E51"/>
<path d="M71.1854 250.007C84.0363 217.079 95.7168 155.739 95.7168 155.739L58.3345 165.974C58.3345 165.974 49.1502 223.206 48.1828 251.5C47.1796 280.916 48.0037 344.561 48.0037 344.561L65.811 344.549C65.823 344.549 74.5773 273.009 71.1854 250.007Z" fill="#263238"/>
<path opacity="0.2" d="M86.7474 185.729C77.3601 195.414 75.9149 214.798 77.3481 231.985C81.9463 216.96 86.1383 199.977 89.351 185.86L86.7474 185.729Z" fill="black"/>
<path d="M47.5498 346.711L66.229 347.487L67.4472 341.456L46.6182 340.274L47.5498 346.711Z" fill="#407BFF"/>
<path d="M52.4346 47.0201C52.6018 47.7486 52.339 48.4294 51.8613 48.5249C51.3836 48.6324 50.8581 48.1189 50.7028 47.3903C50.5356 46.6618 50.7984 45.9811 51.2761 45.8855C51.7538 45.778 52.2793 46.2916 52.4346 47.0201Z" fill="#263238"/>
<path d="M43.3339 48.7519C43.5011 49.4804 43.2383 50.1612 42.7606 50.2567C42.2829 50.3642 41.7574 49.8506 41.6021 49.1221C41.4349 48.3936 41.6977 47.7128 42.1754 47.6173C42.6531 47.5098 43.1786 48.0233 43.3339 48.7519Z" fill="#263238"/>
<path d="M44.8746 49.0504C44.8746 49.0504 44.146 53.6247 42.7606 56.0491C44.3252 56.9807 46.4152 55.9655 46.4152 55.9655L44.8746 49.0504Z" fill="#C09060"/>
<path d="M48.7203 58.3661C51.5866 58.1392 52.9959 56.2283 53.0556 56.1447C53.1273 56.0491 53.1034 55.9058 53.0078 55.8342C52.9123 55.7625 52.769 55.7864 52.6973 55.8819C52.6854 55.9058 51.0372 58.1153 47.7529 57.9362C47.6334 57.9362 47.5259 58.0198 47.5259 58.1392C47.5259 58.2586 47.6095 58.3661 47.7409 58.3661C48.0873 58.402 48.4217 58.39 48.7203 58.3661Z" fill="#263238"/>
<path d="M52.554 42.9236C52.6257 42.8997 52.6854 42.8519 52.7332 42.7922C52.8884 42.613 52.8645 42.3264 52.6854 42.1711C50.8223 40.5827 48.8636 41.1201 48.78 41.144C48.5411 41.2157 48.4097 41.4545 48.4814 41.6815C48.553 41.9084 48.7919 42.0517 49.0308 41.98C49.0905 41.9681 50.6312 41.562 52.1121 42.828C52.2316 42.9594 52.3988 42.9833 52.554 42.9236Z" fill="#263238"/>
<path d="M38.2102 46.6976C38.3416 46.6618 38.461 46.5543 38.5088 46.411C39.0821 44.5598 40.5988 44.1059 40.6586 44.082C40.8855 44.0104 41.0288 43.7715 40.9571 43.5446C40.8855 43.3177 40.6466 43.1744 40.4078 43.246C40.3242 43.2699 38.3774 43.8432 37.6608 46.1602C37.5892 46.3871 37.7205 46.6379 37.9594 46.7095C38.043 46.7215 38.1386 46.7215 38.2102 46.6976Z" fill="#263238"/>
<path d="M143.788 326.658L152.746 319.074L142.009 300.539L132.108 308.457L143.788 326.658Z" fill="#AF6E51"/>
<path d="M116.677 245.671C106.131 204.921 123.162 173.367 106.251 152.861L74.5653 161.532C74.5653 161.532 86.2458 224.604 96.1467 251.38C106.43 279.22 132.096 314.823 132.096 314.823L147.323 305.555C147.335 305.555 132.968 271.158 116.677 245.671Z" fill="#263238"/>
<path d="M150.703 317.319C152.017 316.817 153.498 317.295 154.43 318.346L161.357 326.204C161.99 326.909 161.822 328.056 161.046 328.617C156.854 331.651 157.606 330.671 153.51 333.538C148.709 336.894 148.434 338.566 142.009 341.372C138.211 343.032 136.121 341.062 136.825 339.39C140.11 331.627 140.444 327.339 142.08 325.356C142.08 325.356 136.861 323.661 137.566 320.567C138.27 317.474 143.943 313.843 146.201 315.085C149.067 316.662 148.816 319.074 148.816 319.074C148.816 319.074 149.318 317.856 150.703 317.319Z" fill="#263238"/>
<path d="M60.6515 356.039C62.0489 355.979 63.3149 356.899 63.8643 358.2L67.9488 367.85C68.3191 368.71 67.8055 369.761 66.8978 370.048C61.9653 371.589 64.8197 370.514 60.0185 371.935C54.4052 373.595 45.6986 377.823 39.1179 379.77C35.1408 380.94 33.3733 377.321 34.8303 376.247C44.1341 369.463 47.7648 362.297 49.9385 360.935C49.9385 360.935 45.5314 357.675 47.1677 354.952C48.8158 352.241 51.3119 351.285 53.0556 353.172C55.2771 355.585 54.2739 357.782 54.2739 357.782C54.2739 357.782 59.1825 356.098 60.6515 356.039Z" fill="#263238"/>
<path d="M133.039 317.677L149.043 308.015L146.738 302.318L128.716 312.816L133.039 317.677Z" fill="#407BFF"/>
<path d="M92.4682 77.8335C95.454 79.8639 98.1174 81.9301 100.876 84.056C103.611 86.1699 106.251 88.4272 108.866 90.7083C114.062 95.3542 119.102 100.215 123.664 105.972C124.237 106.676 124.798 107.405 125.336 108.193C125.873 108.958 126.447 109.71 126.948 110.498L128.417 112.875L129.731 115.264C131.415 118.452 132.86 121.665 134.162 124.902C136.766 131.387 138.796 137.92 140.337 144.715C140.767 146.603 139.584 148.49 137.697 148.92C136.109 149.278 134.532 148.501 133.804 147.128L133.756 147.032C130.698 141.192 127.569 135.28 124.321 129.667C122.685 126.86 121.012 124.102 119.269 121.51C117.501 118.894 115.734 116.637 113.679 114.368C109.559 109.829 104.71 105.518 99.7297 101.374C97.2336 99.2955 94.6777 97.2651 92.1219 95.2467C89.578 93.2403 86.8908 91.2458 84.3827 89.3826L84.2871 89.311C81.17 86.982 80.525 82.575 82.854 79.4578C85.1112 76.4123 89.363 75.7315 92.4682 77.8335Z" fill="#AF6E51"/>
<path d="M89.4108 74.0834C98.3921 74.2386 108.15 88.2958 108.15 88.2958L99.4311 104.491C99.4311 104.491 88.8853 101.433 81.9343 92.1057C74.3743 81.9539 78.5305 73.9042 89.4108 74.0834Z" fill="#407BFF"/>
<path d="M132.705 143.999L135.201 153.064L144.791 147.14C144.791 147.14 141.531 139.21 137.04 140.261L132.705 143.999Z" fill="#AF6E51"/>
<path d="M143.657 157.949L146.667 155.309C147.861 154.258 148.124 152.491 147.288 151.141L144.803 147.14L135.213 153.064L139.023 157.602C140.193 159 142.283 159.155 143.657 157.949Z" fill="#AF6E51"/>
<path d="M335.56 52.8894C338.988 42.2361 363.854 60.3539 365.55 67.1257C367.246 73.8975 346.524 79.0689 360.02 88.8265C373.516 98.5841 348.16 95.1326 353.224 101.737C358.288 108.342 360.868 121.67 336.492 112.414C312.104 103.158 294.093 93.3052 309.62 88.3249C325.146 83.3446 299.671 75.2232 315.496 68.7858C331.32 62.3365 312.164 55.075 335.56 52.8894Z" fill="#407BFF"/>
<path d="M354.753 125.409C356.126 130.102 357.703 135.023 359.375 139.693C360.235 142.034 361.131 144.327 362.098 146.56C362.6 147.647 363.101 148.746 363.627 149.773C363.878 150.31 364.152 150.824 364.439 151.301L364.857 152.042L364.964 152.233L365.012 152.329C365.024 152.352 365.012 152.341 365.012 152.341C365 152.329 365 152.364 364.964 152.317C364.881 152.245 364.487 151.946 363.961 151.827C363.448 151.708 363.101 151.839 363.137 151.863C363.185 151.946 364.021 151.624 364.785 151.075C366.398 149.988 368.177 148.304 369.837 146.536C373.181 142.965 376.454 138.916 379.559 134.903L379.619 134.82C380.622 133.518 382.485 133.279 383.787 134.282C384.886 135.13 385.232 136.611 384.695 137.829C382.485 142.846 380.001 147.563 376.788 152.161C375.152 154.454 373.432 156.712 370.948 158.885C369.658 159.948 368.261 161.095 365.777 161.883C364.558 162.253 362.862 162.468 361.083 161.979C359.291 161.525 357.799 160.39 356.867 159.339C356.604 159.065 356.425 158.814 356.222 158.551L355.995 158.24L355.84 158.014L355.207 157.094C354.765 156.485 354.371 155.864 354.001 155.243C353.212 154.013 352.555 152.759 351.875 151.516C350.573 149.02 349.414 146.5 348.363 143.968C346.273 138.869 344.589 133.829 343.204 128.418C342.392 125.229 344.315 121.969 347.503 121.157C350.633 120.357 353.809 122.184 354.717 125.265L354.753 125.409Z" fill="#FF8B7B"/>
<path d="M382.724 140.326L388.003 137.197L382.676 129.338C382.676 129.338 378.389 133.852 378.365 138.367L382.724 140.326Z" fill="#FF8B7B"/>
<path d="M390.057 128.359L389.818 128.108C388.349 126.591 386.235 126.364 384.79 127.57L382.676 129.338L388.003 137.197L390.272 135.059C392.016 133.422 391.908 130.269 390.057 128.359Z" fill="#FF8B7B"/>
<path d="M337.555 118.004C337.698 121.133 339.525 127.26 341.03 131.846C342.129 135.166 343.049 137.662 343.049 137.662L344.876 137.125L360.02 132.622C359.841 124.573 359.064 115.723 350.955 110.707C345.867 107.554 337.304 112.414 337.555 118.004Z" fill="#263238"/>
<path opacity="0.3" d="M341.03 131.846C342.129 135.166 343.049 137.662 343.049 137.662L344.876 137.125C345.007 133.972 344.96 128.968 343.562 126.519C342.344 127.988 341.544 129.875 341.03 131.846Z" fill="black"/>
<path d="M269.359 347.349L278.83 348.257L283.954 326.162L274.483 325.254L269.359 347.349Z" fill="#FF8B7B"/>
<path d="M202.095 321.206L209.989 326.771L224.799 310.086L216.905 304.533L202.095 321.206Z" fill="#FF8B7B"/>
<path d="M211.482 325.911L205.642 316.751C205.427 316.416 205.033 316.297 204.687 316.464L196.971 320.178C196.171 320.561 195.896 321.671 196.398 322.436C198.488 325.589 199.647 327.01 202.214 331.035C203.791 333.507 206.932 339.228 209.117 342.656C211.255 346 214.707 344.041 214.098 342.417C211.363 335.131 211.482 330.951 211.864 327.607C211.936 326.998 211.793 326.401 211.482 325.911Z" fill="#263238"/>
<path d="M280.132 345.391H268.726C268.308 345.391 267.95 345.677 267.842 346.083L265.621 355.1C265.394 356.032 266.099 356.892 267.066 356.904C271.091 356.94 272.99 356.617 278.006 356.617C281.087 356.617 289.077 356.916 293.329 356.916C297.497 356.916 298.25 352.7 296.518 352.318C288.743 350.61 284.216 348.245 281.768 346C281.326 345.606 280.741 345.391 280.132 345.391Z" fill="#263238"/>
<path opacity="0.2" d="M283.942 326.162L281.087 338.511L271.628 337.556L274.471 325.254L283.942 326.162Z" fill="black"/>
<path opacity="0.2" d="M216.893 304.533L224.799 310.086L217.155 318.686L209.261 313.132L216.893 304.533Z" fill="black"/>
<path d="M289.961 146.154C296.757 149.414 311.208 156.353 325.182 163.065C356.425 115.567 353.129 112.355 353.129 112.355C353.129 112.355 347.671 108.139 341.926 104.448C341.054 103.887 340.17 103.338 339.298 102.824C334.294 99.8382 329.362 97.6884 323.307 95.1325C322.506 94.7862 321.694 94.4637 320.882 94.1532C313.967 91.4899 307.458 89.9492 307.458 89.9492C306.096 96.936 304.854 102.848 303.648 107.96C302.095 114.624 300.626 119.939 299.157 124.489C296.398 132.957 293.592 138.857 289.961 146.154Z" fill="#263238"/>
<path opacity="0.3" d="M299.169 124.477C303.278 119.891 307.995 108.616 307.637 104.078L303.66 107.936C302.107 114.612 300.638 119.927 299.169 124.477Z" fill="black"/>
<path d="M330.735 85.2197C329.015 89.6984 326.531 94.0338 323.307 95.1206C323.307 95.1206 319.473 104.532 331.774 115.078C344.745 108.437 339.299 102.8 339.299 102.8C334.175 98.6558 335.787 94.7504 340.206 89.0773L336.432 85.1122C335.262 82.5683 331.727 82.6519 330.735 85.2197Z" fill="#FF8B7B"/>
<path opacity="0.2" d="M336.42 85.1122C335.321 82.7116 332.097 82.64 330.914 84.8256C331.726 88.8863 333.231 92.5648 336.348 95.6461C336.886 93.6874 338.271 91.5377 340.194 89.0774L336.42 85.1122Z" fill="black"/>
<path d="M328.036 68.4753C327.606 78.0896 327.224 82.1503 331.452 87.6561C337.794 95.9447 349.474 94.5951 352.711 85.3511C355.625 77.0386 355.828 62.6948 347.062 57.7264C338.415 52.8297 328.466 58.861 328.036 68.4753Z" fill="#FF8B7B"/>
<path d="M355.911 70.8043C355.935 70.7804 355.947 70.7565 355.959 70.7326C356.103 70.5296 356.043 70.2429 355.828 70.0877C353.75 68.6425 351.827 69.4188 351.755 69.4547C351.528 69.5502 351.421 69.8249 351.516 70.0518C351.612 70.2907 351.875 70.3982 352.102 70.3026C352.173 70.2788 353.678 69.6935 355.326 70.8401C355.529 70.9834 355.768 70.9595 355.911 70.8043Z" fill="#263238"/>
<path d="M333.172 59.5299C340.588 70.2071 330.699 66.7316 332.527 72.6196C333.769 76.6445 324.561 85.1361 322.076 77.9821C319.592 70.8281 321.085 58.037 333.172 59.5299Z" fill="#407BFF"/>
<path d="M330.162 59.4582C331.5 69.4786 340.708 58.9208 343.789 64.2713C346.87 69.6219 362.11 66.4927 357.691 60.33C353.284 54.1673 335.919 48.7212 330.162 59.4582Z" fill="#407BFF"/>
<path d="M324.549 76.5609C324.823 78.7226 326.042 80.5738 327.439 81.6606C329.541 83.3088 331.547 81.6606 331.75 79.1287C331.941 76.8475 331.07 73.2526 328.574 72.5957C326.113 71.9508 324.238 74.0886 324.549 76.5609Z" fill="#FF8B7B"/>
<path d="M325.182 163.054C325.182 163.054 315.269 210.982 307.9 247.85C302.036 277.159 284.634 333.089 284.634 333.089L270.649 331.704C270.649 331.704 275.092 265.479 287.799 246.166C287.572 203.219 281.923 161.25 296.948 149.271L325.182 163.054Z" fill="#407BFF"/>
<path d="M268.726 327.452L287.035 329.709L285.459 335.896L268.308 334.044L268.726 327.452Z" fill="#263238"/>
<path opacity="0.3" d="M300.495 186.415L287.393 173.802C285.829 188.696 286.88 208.163 287.465 228.825C295.562 214.6 301.594 199.122 300.495 186.415Z" fill="black"/>
<path d="M317.442 159.471C317.442 159.471 290.63 206.384 276.871 241.21C275.187 245.486 273.181 249.63 270.756 253.523C253.988 280.539 222.16 315.747 222.16 315.747L211.972 307.232C211.972 307.232 243.645 247.707 256.317 234.211C264.964 193.043 271.58 156.628 289.949 146.142L317.442 159.471Z" fill="#407BFF"/>
<path d="M221.813 318.972L208.604 308.737L211.757 302.873L226.256 314.792L221.813 318.972Z" fill="#263238"/>
<path d="M290.367 143.801L287.357 146.226C287.119 146.417 287.298 146.811 287.704 147.002L324.632 164.738C324.955 164.893 325.277 164.857 325.397 164.666L327.14 161.632C327.26 161.417 327.069 161.107 326.722 160.94L291.06 143.813C290.797 143.694 290.522 143.682 290.367 143.801Z" fill="#407BFF"/>
<path opacity="0.2" d="M290.367 143.801L287.357 146.226C287.119 146.417 287.298 146.811 287.704 147.002L324.632 164.738C324.955 164.893 325.277 164.857 325.397 164.666L327.14 161.632C327.26 161.417 327.069 161.107 326.722 160.94L291.06 143.813C290.797 143.694 290.522 143.682 290.367 143.801Z" fill="black"/>
<path d="M293.365 150.143L292.409 149.689C292.218 149.594 292.123 149.426 292.183 149.319L294.476 145.39C294.547 145.27 294.75 145.258 294.941 145.342L295.897 145.796C296.088 145.891 296.183 146.058 296.124 146.166L293.831 150.095C293.759 150.215 293.556 150.239 293.365 150.143Z" fill="#407BFF"/>
<path d="M321.802 163.806L320.846 163.352C320.655 163.257 320.56 163.089 320.619 162.982L322.912 159.053C322.984 158.933 323.187 158.921 323.378 159.005L324.334 159.459C324.525 159.554 324.62 159.721 324.561 159.829L322.267 163.758C322.208 163.878 321.993 163.89 321.802 163.806Z" fill="#407BFF"/>
<path d="M307.577 156.974L306.622 156.521C306.431 156.425 306.335 156.258 306.395 156.15L308.688 152.221C308.76 152.102 308.963 152.09 309.154 152.173L310.109 152.627C310.3 152.723 310.396 152.89 310.336 152.997L308.043 156.927C307.983 157.046 307.768 157.058 307.577 156.974Z" fill="#407BFF"/>
<path d="M341.556 72.966C341.472 73.7423 341.807 74.423 342.308 74.4947C342.81 74.5544 343.276 73.9811 343.359 73.2048C343.443 72.4285 343.108 71.7477 342.607 71.6761C342.105 71.6164 341.639 72.1896 341.556 72.966Z" fill="#263238"/>
<path d="M350.179 74.0767C350.095 74.853 350.43 75.5338 350.931 75.6054C351.433 75.6651 351.899 75.0919 351.982 74.3156C352.066 73.5393 351.731 72.8585 351.23 72.7868C350.728 72.7271 350.262 73.3004 350.179 74.0767Z" fill="#263238"/>
<path d="M351.003 72.7988L352.89 72.5002C352.89 72.5002 351.803 73.8378 351.003 72.7988Z" fill="#263238"/>
<path d="M342.069 79.0212C341.699 79.0212 341.317 78.9734 340.959 78.8779C339.549 78.5196 338.391 77.5163 337.698 76.0593C337.017 74.6141 336.874 72.8943 337.304 71.2103C337.734 69.5263 338.665 68.0692 339.943 67.1257C341.245 66.1583 342.738 65.8239 344.147 66.1822C345.557 66.5405 346.715 67.5437 347.408 69.0008C348.089 70.446 348.232 72.1658 347.802 73.8498L347.527 73.7781L347.802 73.8498C347.372 75.5338 346.441 76.9908 345.163 77.9343C344.195 78.6509 343.132 79.0212 342.069 79.0212ZM343.037 66.6002C342.093 66.6002 341.138 66.9346 340.278 67.5676C339.095 68.4395 338.236 69.7771 337.841 71.3417C337.447 72.9062 337.579 74.4947 338.2 75.8204C338.821 77.1222 339.848 78.0179 341.09 78.3404C342.344 78.6509 343.67 78.3524 344.828 77.4925C346.011 76.6206 346.87 75.283 347.265 73.7184C347.659 72.1538 347.527 70.5654 346.906 69.2397C346.285 67.9379 345.258 67.0421 344.016 66.7197C343.694 66.6361 343.359 66.6002 343.037 66.6002Z" fill="white"/>
<path d="M352.52 80.5738C352.257 80.5738 351.994 80.538 351.743 80.4783C349.343 79.8811 348.113 76.537 348.996 73.0376C349.88 69.5383 352.543 67.1735 354.944 67.7826C357.345 68.3798 358.575 71.7239 357.691 75.2232C357.273 76.8953 356.437 78.3643 355.326 79.3556C354.442 80.1558 353.463 80.5738 352.52 80.5738ZM354.156 68.2365C352.233 68.2365 350.25 70.2907 349.534 73.169C348.734 76.3698 349.785 79.4034 351.875 79.9289C352.866 80.1797 353.965 79.8214 354.944 78.9376C355.959 78.0179 356.736 76.6445 357.13 75.0799C357.93 71.8791 356.879 68.8456 354.789 68.3201C354.586 68.2603 354.371 68.2365 354.156 68.2365Z" fill="white"/>
<path d="M349.211 73.6109C349.128 73.6109 349.044 73.5751 348.984 73.5034C348.662 73.0734 347.778 73.3601 347.766 73.3601C347.623 73.4079 347.456 73.3243 347.408 73.1809C347.36 73.0376 347.432 72.8824 347.587 72.8226C347.635 72.8107 348.865 72.4046 349.426 73.169C349.522 73.2884 349.498 73.4676 349.367 73.5631C349.319 73.587 349.259 73.6109 349.211 73.6109Z" fill="white"/>
<path d="M348.399 75.1038C348.399 75.1038 349.343 78.6151 350.597 80.4185C349.486 81.2426 347.826 80.5857 347.826 80.5857L348.399 75.1038Z" fill="#FF5652"/>
<path d="M344.685 83.3207C344.768 83.2968 344.828 83.2252 344.84 83.1296C344.852 82.9982 344.768 82.8908 344.637 82.8669C341.293 82.4369 339.979 79.8572 339.967 79.8213C339.908 79.7019 339.776 79.6661 339.669 79.7139C339.561 79.7736 339.513 79.9049 339.573 80.0244C339.633 80.1438 341.006 82.8549 344.601 83.3207C344.625 83.3207 344.661 83.3207 344.685 83.3207Z" fill="#263238"/>
<path d="M341.018 69.8846C341.09 69.8607 341.162 69.8249 341.221 69.7652C342.595 68.2962 344.231 68.6067 344.255 68.6067C344.494 68.6545 344.733 68.4992 344.78 68.2484C344.828 67.9976 344.661 67.7587 344.41 67.711C344.327 67.699 342.272 67.3049 340.564 69.1202C340.397 69.2994 340.397 69.598 340.588 69.7652C340.696 69.8846 340.863 69.9204 341.018 69.8846Z" fill="#263238"/>
<path d="M213.13 330.868C213.178 330.891 213.226 330.903 213.274 330.915C213.692 331.023 214.098 330.903 214.48 330.557C214.767 330.294 214.791 330.008 214.767 329.817C214.576 328.586 211.446 327.165 211.088 326.998C211.005 326.962 210.909 326.974 210.849 327.046C210.79 327.105 210.766 327.201 210.79 327.297C211.196 328.455 212.044 330.426 213.13 330.868ZM211.399 327.655C212.641 328.264 214.217 329.243 214.313 329.888C214.325 329.972 214.325 330.079 214.181 330.211C213.919 330.45 213.656 330.533 213.393 330.462C212.76 330.294 212.032 329.267 211.399 327.655Z" fill="#407BFF"/>
<path d="M211.124 327.523C212.199 327.953 214.528 328.18 215.244 327.452C215.388 327.297 215.603 326.974 215.352 326.449C215.197 326.114 214.934 325.899 214.576 325.804C213.25 325.433 210.957 326.962 210.861 327.022C210.79 327.07 210.754 327.141 210.766 327.225C210.766 327.309 210.813 327.38 210.885 327.416C210.969 327.452 211.04 327.488 211.124 327.523ZM214.564 326.269C214.743 326.341 214.874 326.461 214.958 326.652C215.089 326.914 215.017 327.046 214.934 327.117C214.456 327.595 212.593 327.535 211.494 327.165C212.282 326.699 213.68 326.019 214.468 326.234C214.504 326.258 214.528 326.258 214.564 326.269Z" fill="#407BFF"/>
<path d="M285.244 347.266C286.127 347.266 286.939 347.134 287.453 346.728C287.799 346.453 287.99 346.083 288.002 345.629C288.014 345.295 287.847 345.104 287.704 345.008C286.653 344.304 282.819 346.071 282.055 346.43C281.971 346.465 281.923 346.561 281.935 346.657C281.947 346.752 282.019 346.836 282.114 346.86C282.939 347.063 284.145 347.266 285.244 347.266ZM286.999 345.307C287.19 345.307 287.346 345.343 287.453 345.402C287.501 345.438 287.549 345.486 287.549 345.617C287.537 345.94 287.417 346.191 287.166 346.37C286.51 346.871 284.933 346.943 282.891 346.561C284.276 345.964 286.092 345.307 286.999 345.307Z" fill="#407BFF"/>
<path d="M282.162 346.883C282.186 346.883 282.222 346.883 282.246 346.872C283.524 346.346 286.056 344.268 285.876 343.193C285.841 342.954 285.673 342.667 285.076 342.596C282.795 342.333 281.959 346.442 281.923 346.621C281.911 346.704 281.935 346.788 282.007 346.848C282.055 346.86 282.102 346.883 282.162 346.883ZM284.885 343.026C284.933 343.026 284.993 343.026 285.04 343.038C285.279 343.062 285.411 343.133 285.435 343.253C285.542 343.874 283.786 345.522 282.497 346.239C282.771 345.235 283.524 343.026 284.885 343.026Z" fill="#407BFF"/>
<path d="M342.38 71.6881L344.267 71.3895C344.267 71.3895 343.168 72.7271 342.38 71.6881Z" fill="#263238"/>
<path d="M307.303 106.24C305.01 108.282 302.728 110.085 300.376 111.937C298.023 113.752 295.622 115.52 293.114 117.192C290.618 118.876 288.05 120.5 285.303 121.981C282.52 123.474 279.726 124.895 275.999 125.862L275.713 125.934C274.984 126.125 274.244 126.113 273.563 125.958C270.864 125.313 268.678 124.274 266.636 123.187C264.594 122.088 262.743 120.846 260.951 119.568C259.171 118.267 257.488 116.905 255.875 115.472C254.263 114.003 252.734 112.57 251.229 110.921C250.119 109.703 250.214 107.804 251.432 106.694C252.4 105.822 253.773 105.69 254.86 106.264L254.968 106.323C256.699 107.255 258.491 108.282 260.27 109.178C262.05 110.109 263.817 111.029 265.585 111.853C267.341 112.701 269.12 113.453 270.828 114.098C272.536 114.731 274.244 115.197 275.605 115.364L273.157 115.46C274.996 114.827 277.349 113.513 279.571 112.128C281.816 110.706 284.073 109.13 286.306 107.506C288.54 105.858 290.761 104.162 292.971 102.43C295.18 100.722 297.39 98.8946 299.492 97.1868L299.563 97.1271C302.131 95.0489 305.881 95.4431 307.96 98.0108C309.978 100.507 309.655 104.138 307.303 106.24Z" fill="#FF8B7B"/>
<path d="M256.508 108.987L253.367 101.797L247.169 107.052C247.169 107.052 250.572 112.056 254.406 112.904L256.508 108.987Z" fill="#FF8B7B"/>
<path d="M250.501 96.8882L248.208 99.0141C246.882 100.244 246.273 102.072 246.583 103.851L247.157 107.052L253.355 101.797L250.501 96.8882Z" fill="#FF8B7B"/>
<path d="M307.458 89.9373C302.728 89.0535 292.003 99.6471 292.003 99.6471L299.766 116.009C299.766 116.009 313.621 107.625 313.561 101.63C313.525 96.303 313.489 91.0719 307.458 89.9373Z" fill="#263238"/>
<path d="M246.082 85.16C243.478 85.16 240.886 84.1687 238.904 82.1861C225.707 68.9889 208.162 61.7274 189.495 61.7274C170.828 61.7274 153.283 69.0008 140.086 82.1861C136.121 86.1513 129.695 86.1513 125.73 82.1861C121.765 78.221 121.765 71.7955 125.73 67.8304C142.761 50.7994 165.405 41.424 189.495 41.424C213.584 41.424 236.229 50.7994 253.26 67.8304C257.225 71.7955 257.225 78.221 253.26 82.1861C251.277 84.1687 248.673 85.16 246.082 85.16Z" fill="#407BFF"/>
<path opacity="0.4" d="M246.082 85.16C243.478 85.16 240.886 84.1687 238.904 82.1861C225.707 68.9889 208.162 61.7274 189.495 61.7274C170.828 61.7274 153.283 69.0008 140.086 82.1861C136.121 86.1513 129.695 86.1513 125.73 82.1861C121.765 78.221 121.765 71.7955 125.73 67.8304C142.761 50.7994 165.405 41.424 189.495 41.424C213.584 41.424 236.229 50.7994 253.26 67.8304C257.225 71.7955 257.225 78.221 253.26 82.1861C251.277 84.1687 248.673 85.16 246.082 85.16Z" fill="white"/>
<path d="M253.26 195.36C257.225 191.395 257.225 184.969 253.26 181.004C249.294 177.039 242.869 177.039 238.904 181.004C225.707 194.201 208.162 201.463 189.495 201.463C170.828 201.463 153.283 194.201 140.086 181.004C126.889 167.807 119.627 150.262 119.627 131.595C119.627 112.928 126.9 95.3834 140.086 82.1862C144.051 78.221 144.051 71.7956 140.086 67.8304C136.121 63.8653 129.695 63.8653 125.73 67.8304C108.699 84.8614 99.3236 107.506 99.3236 131.595C99.3236 155.685 108.699 178.329 125.73 195.36C140.349 209.978 159.099 218.936 179.343 221.193V256.008H158.837C153.235 256.008 148.685 260.558 148.685 266.159C148.685 271.761 153.235 276.311 158.837 276.311H179.343V296.818C179.343 302.419 183.893 306.969 189.495 306.969C195.096 306.969 199.647 302.419 199.647 296.818V276.311H220.153C225.754 276.311 230.305 271.761 230.305 266.159C230.305 260.558 225.754 256.008 220.153 256.008H199.647V221.193C219.89 218.924 238.641 209.967 253.26 195.36Z" fill="#407BFF"/>
<path d="M321.025 11.0524C321.037 10.9688 321.037 10.8972 321.037 10.8136C321.061 10.503 321.061 10.2044 321.061 9.89392C321.061 9.77449 321.049 9.65506 321.049 9.53563C321.037 9.24899 321.001 8.96236 320.966 8.68766C320.954 8.59212 320.942 8.49657 320.918 8.38908C320.787 7.62472 320.56 6.88424 320.261 6.16765C320.225 6.09599 320.189 6.02432 320.154 5.94072C320.022 5.66603 319.891 5.39133 319.735 5.11664C319.688 5.02109 319.628 4.93749 319.568 4.84195C319.413 4.59114 319.246 4.35228 319.067 4.11341C319.007 4.02981 318.947 3.94621 318.888 3.86261C318.649 3.55208 318.386 3.2535 318.111 2.9788C317.825 2.69217 317.538 2.44137 317.227 2.2025C317.144 2.13084 317.048 2.07112 316.965 2.01141C316.738 1.8442 316.499 1.677 316.248 1.52174C316.153 1.46202 316.057 1.40231 315.95 1.34259C315.687 1.19927 315.424 1.06789 315.161 0.936515C315.078 0.900686 314.994 0.852915 314.91 0.817085C314.194 0.518505 313.465 0.29158 312.713 0.160205C312.605 0.136319 312.498 0.124383 312.39 0.11244C312.116 0.0766105 311.853 0.0407812 311.578 0.028838C311.447 0.0168948 311.327 0.0168897 311.196 0.00494651C310.898 -0.0069967 310.611 0.00494906 310.312 0.0168923C310.229 0.0168923 310.133 0.0168948 310.05 0.028838C309.667 0.0646676 309.285 0.124383 308.903 0.196042C308.879 0.196042 308.867 0.196036 308.843 0.207979L248.829 12.8439C243.347 14.0024 239.835 19.3768 240.982 24.8707C242.14 30.3526 247.515 33.8639 253.009 32.7174L279.606 27.116L238.916 67.8065C238.426 68.3082 237.984 68.8337 237.614 69.395C237.423 69.6816 237.256 69.9683 237.1 70.2549C236.79 70.8401 236.539 71.4612 236.36 72.0822C236.169 72.7152 236.049 73.3482 235.99 73.9931C235.954 74.3156 235.942 74.6381 235.942 74.9725C235.942 75.2949 235.954 75.6174 235.99 75.9399C236.205 78.2091 237.184 80.4066 238.916 82.1503C266.158 109.393 266.158 153.714 238.916 180.956C234.951 184.922 234.951 191.347 238.916 195.312C240.898 197.295 243.49 198.286 246.094 198.286C248.697 198.286 251.289 197.295 253.272 195.312C285.996 162.588 288.241 110.754 260.031 75.3785L293.962 41.4479L288.361 68.0454C287.202 73.5273 290.714 78.9137 296.207 80.0722C296.912 80.2155 297.617 80.2872 298.309 80.2872C303.003 80.2872 307.231 77.0028 308.234 72.2255L320.87 12.2109C320.87 12.199 320.87 12.1751 320.882 12.1631C320.942 11.8287 320.99 11.4465 321.025 11.0524Z" fill="#407BFF"/>
<path opacity="0.4" d="M321.025 11.0524C321.037 10.9688 321.037 10.8972 321.037 10.8136C321.061 10.503 321.061 10.2044 321.061 9.89392C321.061 9.77449 321.049 9.65506 321.049 9.53563C321.037 9.24899 321.001 8.96236 320.966 8.68766C320.954 8.59212 320.942 8.49657 320.918 8.38908C320.787 7.62472 320.56 6.88424 320.261 6.16765C320.225 6.09599 320.189 6.02432 320.154 5.94072C320.022 5.66603 319.891 5.39133 319.735 5.11664C319.688 5.02109 319.628 4.93749 319.568 4.84195C319.413 4.59114 319.246 4.35228 319.067 4.11341C319.007 4.02981 318.947 3.94621 318.888 3.86261C318.649 3.55208 318.386 3.2535 318.111 2.9788C317.825 2.69217 317.538 2.44137 317.227 2.2025C317.144 2.13084 317.048 2.07112 316.965 2.01141C316.738 1.8442 316.499 1.677 316.248 1.52174C316.153 1.46202 316.057 1.40231 315.95 1.34259C315.687 1.19927 315.424 1.06789 315.161 0.936515C315.078 0.900686 314.994 0.852915 314.91 0.817085C314.194 0.518505 313.465 0.29158 312.713 0.160205C312.605 0.136319 312.498 0.124383 312.39 0.11244C312.116 0.0766105 311.853 0.0407812 311.578 0.028838C311.447 0.0168948 311.327 0.0168897 311.196 0.00494651C310.898 -0.0069967 310.611 0.00494906 310.312 0.0168923C310.229 0.0168923 310.133 0.0168948 310.05 0.028838C309.667 0.0646676 309.285 0.124383 308.903 0.196042C308.879 0.196042 308.867 0.196036 308.843 0.207979L248.829 12.8439C243.347 14.0024 239.835 19.3768 240.982 24.8707C242.14 30.3526 247.515 33.8639 253.009 32.7174L279.606 27.116L238.916 67.8065C238.426 68.3082 237.984 68.8337 237.614 69.395C237.423 69.6816 237.256 69.9683 237.1 70.2549C236.79 70.8401 236.539 71.4612 236.36 72.0822C236.169 72.7152 236.049 73.3482 235.99 73.9931C235.954 74.3156 235.942 74.6381 235.942 74.9725C235.942 75.2949 235.954 75.6174 235.99 75.9399C236.205 78.2091 237.184 80.4066 238.916 82.1503C266.158 109.393 266.158 153.714 238.916 180.956C234.951 184.922 234.951 191.347 238.916 195.312C240.898 197.295 243.49 198.286 246.094 198.286C248.697 198.286 251.289 197.295 253.272 195.312C285.996 162.588 288.241 110.754 260.031 75.3785L293.962 41.4479L288.361 68.0454C287.202 73.5273 290.714 78.9137 296.207 80.0722C296.912 80.2155 297.617 80.2872 298.309 80.2872C303.003 80.2872 307.231 77.0028 308.234 72.2255L320.87 12.2109C320.87 12.199 320.87 12.1751 320.882 12.1631C320.942 11.8287 320.99 11.4465 321.025 11.0524Z" fill="white"/>
</svg>
