<svg width="64" height="64" viewBox="0 0 64 64" fill="none" xmlns="http://www.w3.org/2000/svg">
<path d="M63.984 64V63.9973H64V40.5253C64 29.0426 61.528 20.1973 48.104 20.1973C41.6507 20.1973 37.32 23.7386 35.552 27.0959H35.3653V21.2693H22.6373V63.9973H35.8907V42.84C35.8907 37.2693 36.9467 31.8826 43.8453 31.8826C50.6427 31.8826 50.744 38.2399 50.744 43.1973V64H63.984Z" fill="#0077B5"/>
<path d="M1.05597 21.272H14.3253V64H1.05597V21.272Z" fill="#0077B5"/>
<path d="M7.68533 0C3.44267 0 0 3.44267 0 7.68533C0 11.928 3.44267 15.4427 7.68533 15.4427C11.928 15.4427 15.3707 11.928 15.3707 7.68533C15.368 3.44267 11.9253 0 7.68533 0V0Z" fill="#0077B5"/>
</svg>
