<svg width="64" height="64" viewBox="0 0 64 64" fill="none" xmlns="http://www.w3.org/2000/svg">
<g clip-path="url(#clip0)">
<path d="M58.8933 12.6213L64 7.73596V6.66663H46.3093L33.7013 38.048L19.3573 6.66663H0.808V7.73596L6.77333 14.9173C7.35467 15.448 7.65867 16.224 7.58133 17.0053V45.2266C7.76533 46.2426 7.43467 47.288 6.72 48.0266L0 56.1706V57.2266H19.0533V56.1573L12.3333 48.0266C11.6053 47.2853 11.2613 46.2586 11.408 45.2266V20.816L28.1333 57.24H30.0773L44.4587 20.816V49.832C44.4587 50.5973 44.4587 50.7546 43.9573 51.256L38.784 56.2613V57.3333H63.8827V56.264L58.896 51.3813C58.4587 51.0506 58.232 50.496 58.3253 49.9573V14.0453C58.232 13.504 58.456 12.9493 58.8933 12.6213Z" fill="black"/>
</g>
<defs>
<clipPath id="clip0">
<rect width="64" height="64" fill="white"/>
</clipPath>
</defs>
</svg>
