<svg width="64" height="64" viewBox="0 0 64 64" fill="none" xmlns="http://www.w3.org/2000/svg">
<g clip-path="url(#clip0)">
<path d="M32 0.00622297C14.7073 -0.334744 0.39798 13.3784 0.00314331 30.6699C0.0482639 39.4719 3.94576 47.8128 10.6687 53.4943V62.6668C10.6687 63.4031 11.2657 64 12.002 64C12.2518 64 12.4967 63.9298 12.7085 63.7974L20.1398 59.1552C23.9259 60.6033 27.9464 61.3418 32 61.3336C49.2927 61.6746 63.6021 47.9614 63.9969 30.67C63.6021 13.3784 49.2927 -0.334744 32 0.00622297Z" fill="#2196F3"/>
<path d="M53.0646 21.8707C52.6679 21.339 51.9406 21.1799 51.3581 21.4974L37.4929 29.0567L28.8671 21.66C28.3381 21.2065 27.5492 21.2367 27.0566 21.7294L11.0582 37.7278C10.5391 38.25 10.5416 39.0942 11.0639 39.6133C11.4815 40.0283 12.1218 40.1203 12.6394 39.8396L26.5047 32.2803L35.1385 39.6796C35.6674 40.1331 36.4563 40.103 36.9489 39.6103L52.9473 23.6118C53.4136 23.1412 53.4636 22.3997 53.0646 21.8707Z" fill="#FAFAFA"/>
</g>
<defs>
<clipPath id="clip0">
<rect width="64" height="64" fill="white"/>
</clipPath>
</defs>
</svg>
