<svg width="64" height="64" viewBox="0 0 64 64" fill="none" xmlns="http://www.w3.org/2000/svg">
<path d="M62 14.0014H34C32.896 14.0014 32 14.8974 32 16.0014C32 17.1054 32.896 18.0014 34 18.0014H56.172L43.884 27.5574L35.072 21.9534L32.928 25.3294L42.928 31.6894C43.252 31.8974 43.628 32.0014 44 32.0014C44.432 32.0014 44.868 31.8614 45.228 31.5814L60 20.0894V46.0014H34C32.896 46.0014 32 46.8974 32 48.0014C32 49.1054 32.896 50.0014 34 50.0014H62C63.104 50.0014 64 49.1054 64 48.0014V16.0014C64 14.8974 63.104 14.0014 62 14.0014Z" fill="#1976D2"/>
<path d="M35.276 2.46135C34.82 2.08135 34.208 1.91735 33.632 2.03735L1.632 8.03735C0.684 8.21335 0 9.03735 0 10.0014V54.0014C0 54.9613 0.684 55.7894 1.632 55.9654L33.632 61.9654C33.752 61.9893 33.876 62.0014 34 62.0014C34.464 62.0014 34.916 61.8414 35.276 61.5414C35.736 61.1614 36 60.5933 36 60.0014V4.00135C36 3.40535 35.736 2.84135 35.276 2.46135Z" fill="#2196F3"/>
<path d="M18 46.0014C12.488 46.0014 8 40.6174 8 34.0014C8 27.3854 12.488 22.0014 18 22.0014C23.512 22.0014 28 27.3854 28 34.0014C28 40.6174 23.512 46.0014 18 46.0014ZM18 26.0014C14.692 26.0014 12 29.5894 12 34.0014C12 38.4134 14.692 42.0014 18 42.0014C21.308 42.0014 24 38.4134 24 34.0014C24 29.5894 21.308 26.0014 18 26.0014Z" fill="#FAFAFA"/>
</svg>
