<svg width="64" height="64" viewBox="0 0 64 64" fill="none" xmlns="http://www.w3.org/2000/svg">
<g clip-path="url(#clip0)">
<path d="M23.5813 33.7361C19.8693 33.7361 16.8587 36.7467 16.8587 40.4587V57.2747C16.8587 60.9867 19.8693 63.9974 23.5813 63.9974C27.2933 63.9974 30.304 60.9867 30.304 57.2747V40.4587C30.3013 36.7467 27.2907 33.7361 23.5813 33.7361Z" fill="#E91E63"/>
<path d="M0.0506592 40.4587C0.0506592 44.1734 3.06399 47.1867 6.77866 47.1867C10.4933 47.1867 13.5067 44.1734 13.5067 40.4587V33.7307H6.78399C6.78133 33.7307 6.78133 33.7307 6.77866 33.7307C3.06399 33.7307 0.0506592 36.744 0.0506592 40.4587Z" fill="#E91E63"/>
<path d="M23.5893 -0.00268555C23.5867 -0.00268555 23.584 -0.00268555 23.5813 -0.00268555C19.8667 -0.00268555 16.8533 3.01065 16.8533 6.72531C16.8533 10.44 19.8667 13.4533 23.5813 13.4533H30.304V6.72531C30.304 6.72265 30.304 6.71731 30.304 6.71198C30.3013 3.00265 27.296 -0.00268555 23.5893 -0.00268555Z" fill="#00BCD4"/>
<path d="M6.73334 30.32H23.5813C27.296 30.32 30.3093 27.3067 30.3093 23.592C30.3093 19.8773 27.296 16.864 23.5813 16.864H6.73334C3.01867 16.864 0.00534058 19.8773 0.00534058 23.592C0.00534058 27.3067 3.01867 30.32 6.73334 30.32Z" fill="#00BCD4"/>
<path d="M57.2187 16.8613C53.5093 16.8613 50.504 19.8667 50.504 23.576V23.5893V30.3173H57.2267C60.9413 30.3173 63.9547 27.304 63.9547 23.5893C63.9547 19.8747 60.9413 16.8613 57.2267 16.8613C57.224 16.8613 57.2213 16.8613 57.2187 16.8613Z" fill="#4CAF50"/>
<path d="M33.7093 6.72535V23.592C33.7093 27.304 36.72 30.3147 40.432 30.3147C44.144 30.3147 47.1547 27.304 47.1547 23.592V6.72535C47.1547 3.01335 44.144 0.00268555 40.432 0.00268555C36.72 0.00268555 33.7093 3.01335 33.7093 6.72535Z" fill="#4CAF50"/>
<path d="M47.152 57.2694C47.152 53.5574 44.1413 50.5468 40.4293 50.5468H33.7067V57.2747C33.7093 60.9841 36.7173 63.9921 40.4293 63.9921C44.1413 63.9921 47.152 60.9814 47.152 57.2694Z" fill="#FF9800"/>
<path d="M57.2773 33.7307H40.4293C36.7147 33.7307 33.7013 36.744 33.7013 40.4587C33.7013 44.1734 36.7147 47.1867 40.4293 47.1867H57.2773C60.992 47.1867 64.0053 44.1734 64.0053 40.4587C64.0053 36.744 60.992 33.7307 57.2773 33.7307Z" fill="#FF9800"/>
</g>
<defs>
<clipPath id="clip0">
<rect width="64" height="64" fill="white"/>
</clipPath>
</defs>
</svg>
