<svg width="64" height="64" viewBox="0 0 64 64" fill="none" xmlns="http://www.w3.org/2000/svg">
<path d="M62.1241 13.3518L54.8414 15.7794C53.7379 16.2208 50.7586 19.6415 45.6828 26.2621C40.2759 33.1035 37.4069 37.5173 36.9655 39.7243L36.6345 45.7933L36.5241 49.6554L37.1862 58.9244L46.7863 59.1451L45.4621 64H16.7724L17.3241 59.6965L21.8482 59.4757C24.1655 59.255 25.6 58.7034 26.0414 58.0412C26.3724 57.5999 26.4827 54.6205 26.4827 49.4344V46.2344L26.3724 39.8344C26.0414 38.3999 23.6138 32.993 18.7586 23.724C13.7931 14.124 10.5931 8.49638 9.04825 6.51025L0 4.6345V0H30.4551L30.1241 3.86212L20.6345 5.29663C23.6138 12.138 28.138 21.738 34.2069 33.7656C42.1517 24.276 46.3447 18.0966 46.4551 15.4484L38.4 13.4621L37.9586 8.82763H64L62.1241 13.3518Z" fill="#8F25A9"/>
</svg>
